<?xml version="1.0" encoding="UTF-8"?>
<svg xmlns="http://www.w3.org/2000/svg" version="1.1" width="3264px" height="3264px" style="shape-rendering:geometricPrecision; text-rendering:geometricPrecision; image-rendering:optimizeQuality; fill-rule:evenodd; clip-rule:evenodd" xmlns:xlink="http://www.w3.org/1999/xlink">
<g><path style="opacity:1" fill="#4b1fed" d="M 1714.5,606.5 C 1996.83,606.333 2279.17,606.5 2561.5,607C 2601.6,614.12 2630.44,635.954 2648,672.5C 2651.89,682.177 2654.56,692.177 2656,702.5C 2656.67,984.5 2656.67,1266.5 2656,1548.5C 2653.35,1565.79 2647.35,1581.79 2638,1596.5C 2622.07,1618.75 2600.91,1633.58 2574.5,1641C 2568.88,1642.26 2563.21,1643.26 2557.5,1644C 2277.5,1644.67 1997.5,1644.67 1717.5,1644C 1691.54,1640.66 1669.04,1630.16 1650,1612.5C 1646.05,1606.88 1641.71,1601.54 1637,1596.5C 1627.33,1580.81 1621.33,1563.81 1619,1545.5C 1618.33,1264.83 1618.33,984.167 1619,703.5C 1628.53,649.142 1660.36,616.808 1714.5,606.5 Z"/></g>
<g><path style="opacity:1" fill="#4b19ed" d="M 803.5,721.5 C 1019,721.167 1234.33,721.5 1449.5,722.5C 1449.44,723.043 1449.11,723.376 1448.5,723.5C 1233.37,722.834 1018.37,722.168 803.5,721.5 Z"/></g>
<g><path style="opacity:1" fill="#4b1fed" d="M 803.5,721.5 C 1018.37,722.168 1233.37,722.834 1448.5,723.5C 1449.11,723.376 1449.44,723.043 1449.5,722.5C 1487.98,726.488 1513.14,746.821 1525,783.5C 1526.52,789.075 1527.52,794.742 1528,800.5C 1528.67,1017.5 1528.67,1234.5 1528,1451.5C 1522.23,1489.94 1500.73,1514.77 1463.5,1526C 1459.21,1526.91 1454.87,1527.58 1450.5,1528C 1233.5,1528.67 1016.5,1528.67 799.5,1528C 764.375,1523.55 740.209,1505.05 727,1472.5C 724.311,1465.06 722.645,1457.39 722,1449.5C 721.333,1233.17 721.333,1016.83 722,800.5C 723.925,782.665 730.259,766.665 741,752.5C 745.5,749.333 749.333,745.5 752.5,741C 767.555,729.699 784.555,723.199 803.5,721.5 Z"/></g>
<g><path style="opacity:1" fill="#4b1fed" d="M 714.5,1618.5 C 714.369,1619.24 714.536,1619.91 715,1620.5C 988.598,1619.83 1262.1,1619.17 1535.5,1618.5C 1564.39,1619.4 1589.39,1629.57 1610.5,1649C 1630.39,1668.95 1641.55,1693.12 1644,1721.5C 1644.67,1999.5 1644.67,2277.5 1644,2555.5C 1640.01,2594.11 1621.51,2623.27 1588.5,2643C 1575.89,2649.54 1562.55,2653.87 1548.5,2656C 1266.17,2656.67 983.833,2656.67 701.5,2656C 653.683,2647.51 622.85,2620.01 609,2573.5C 607.359,2565.56 606.192,2557.56 605.5,2549.5C 606.117,2549.39 606.617,2549.06 607,2548.5C 607.167,2410.83 607.333,2273.17 607.5,2135.5C 607.5,1997.5 606.833,1859.83 605.5,1722.5C 610.212,1677.66 632.879,1645.82 673.5,1627C 686.638,1621.59 700.305,1618.75 714.5,1618.5 Z"/></g>
<g><path style="opacity:1" fill="#4b1ef3" d="M 714.5,1618.5 C 988.167,1618.5 1261.83,1618.5 1535.5,1618.5C 1262.1,1619.17 988.598,1619.83 715,1620.5C 714.536,1619.91 714.369,1619.24 714.5,1618.5 Z"/></g>
<g><path style="opacity:1" fill="#511ff5" d="M 605.5,1722.5 C 606.833,1859.83 607.5,1997.5 607.5,2135.5C 607.333,2273.17 607.167,2410.83 607,2548.5C 606.617,2549.06 606.117,2549.39 605.5,2549.5C 605.5,2273.83 605.5,1998.17 605.5,1722.5 Z"/></g>
<g><path style="opacity:1" fill="#4b1fed" d="M 1811.5,1734.5 C 2028.83,1734.33 2246.17,1734.5 2463.5,1735C 2503.24,1740.68 2528.41,1762.85 2539,1801.5C 2539.97,1807.13 2540.63,1812.8 2541,1818.5C 2541.67,2031.5 2541.67,2244.5 2541,2457.5C 2537.48,2500.01 2515.31,2527.18 2474.5,2539C 2469.55,2540 2464.55,2540.66 2459.5,2541C 2244.83,2541.67 2030.17,2541.67 1815.5,2541C 1780.16,2538.32 1755.33,2520.82 1741,2488.5C 1737.98,2481.09 1735.98,2473.43 1735,2465.5C 1734.33,2246.83 1734.33,2028.17 1735,1809.5C 1741.08,1773.75 1761.25,1749.92 1795.5,1738C 1800.95,1736.75 1806.29,1735.58 1811.5,1734.5 Z"/></g>
</svg>
